<?xml version="1.0" encoding="UTF-8"?>
<svg viewBox="0 0 1440 720" xmlns="http://www.w3.org/2000/svg" preserveAspectRatio="xMidYMid slice">
  <defs>
    <radialGradient id="bgGrad" cx="48%" cy="42%" r="74%" fx="48%" fy="42%">
      <stop offset="0%" stop-color="#0d2040"/>
      <stop offset="100%" stop-color="#060d18"/>
    </radialGradient>
    <radialGradient id="glowA" cx="50%" cy="50%" r="50%">
      <stop offset="0%" stop-color="#60a5fa" stop-opacity="0.22"/>
      <stop offset="100%" stop-color="#60a5fa" stop-opacity="0"/>
    </radialGradient>
    <radialGradient id="glowB" cx="50%" cy="50%" r="50%">
      <stop offset="0%" stop-color="#34d399" stop-opacity="0.18"/>
      <stop offset="100%" stop-color="#34d399" stop-opacity="0"/>
    </radialGradient>
    <radialGradient id="glowC" cx="50%" cy="50%" r="50%">
      <stop offset="0%" stop-color="#a78bfa" stop-opacity="0.20"/>
      <stop offset="100%" stop-color="#a78bfa" stop-opacity="0"/>
    </radialGradient>
    <radialGradient id="glowD" cx="50%" cy="50%" r="50%">
      <stop offset="0%" stop-color="#60a5fa" stop-opacity="0.14"/>
      <stop offset="100%" stop-color="#60a5fa" stop-opacity="0"/>
    </radialGradient>
    <filter id="nodeGlow">
      <feGaussianBlur stdDeviation="3.5" result="blur"/>
      <feComposite in="SourceGraphic" in2="blur" operator="over"/>
    </filter>
    <filter id="ambientGlow">
      <feGaussianBlur stdDeviation="18" result="blur"/>
      <feComposite in="SourceGraphic" in2="blur" operator="over"/>
    </filter>
  </defs>

  <!-- Background -->
  <rect width="1440" height="720" fill="url(#bgGrad)"/>

  <!-- Subtle horizontal scan lines for depth -->
  <rect width="1440" height="720" fill="url(#bgGrad)" opacity="0"/>
  <line x1="0" y1="180" x2="1440" y2="180" stroke="rgba(96,165,250,0.04)" stroke-width="1"/>
  <line x1="0" y1="360" x2="1440" y2="360" stroke="rgba(96,165,250,0.04)" stroke-width="1"/>
  <line x1="0" y1="540" x2="1440" y2="540" stroke="rgba(96,165,250,0.04)" stroke-width="1"/>
  <line x1="360" y1="0" x2="360" y2="720" stroke="rgba(96,165,250,0.03)" stroke-width="1"/>
  <line x1="720" y1="0" x2="720" y2="720" stroke="rgba(96,165,250,0.03)" stroke-width="1"/>
  <line x1="1080" y1="0" x2="1080" y2="720" stroke="rgba(96,165,250,0.03)" stroke-width="1"/>

  <!-- Cluster atmosphere blobs -->
  <ellipse cx="316" cy="317" rx="148" ry="122" fill="url(#glowA)"/>
  <ellipse cx="893" cy="216" rx="132" ry="108" fill="url(#glowB)"/>
  <ellipse cx="1094" cy="418" rx="124" ry="114" fill="url(#glowC)"/>
  <ellipse cx="634" cy="418" rx="112" ry="98" fill="url(#glowD)"/>

  <!-- Background scattered nodes (very dim) -->
  <g fill="#60a5fa" opacity="0.28">
    <circle cx="112" cy="95" r="2.2"/>
    <circle cx="188" cy="148" r="1.8"/>
    <circle cx="450" cy="82" r="2.4"/>
    <circle cx="540" cy="155" r="1.9"/>
    <circle cx="748" cy="92" r="2.1"/>
    <circle cx="988" cy="118" r="2.3"/>
    <circle cx="1198" cy="78" r="1.8"/>
    <circle cx="1374" cy="158" r="2.2"/>
    <circle cx="88" cy="324" r="2.0"/>
    <circle cx="82" cy="488" r="2.4"/>
    <circle cx="192" cy="562" r="1.8"/>
    <circle cx="438" cy="585" r="2.2"/>
    <circle cx="724" cy="598" r="2.6"/>
    <circle cx="848" cy="648" r="2.0"/>
    <circle cx="1058" cy="622" r="2.2"/>
    <circle cx="1248" cy="584" r="1.9"/>
    <circle cx="1382" cy="498" r="2.3"/>
    <circle cx="1322" cy="302" r="2.1"/>
    <circle cx="1098" cy="102" r="2.4"/>
    <circle cx="490" cy="268" r="1.8"/>
    <circle cx="748" cy="382" r="2.0"/>
    <circle cx="528" cy="488" r="1.9"/>
    <circle cx="168" cy="228" r="2.2"/>
    <circle cx="1248" cy="468" r="2.0"/>
    <circle cx="818" cy="508" r="2.1"/>
  </g>

  <!-- Background thin connection lines (very dim, between clusters) -->
  <g stroke="#60a5fa" stroke-opacity="0.10" stroke-width="1" fill="none">
    <!-- A to D -->
    <path d="M 378,350 C 478,372 548,398 594,392"/>
    <!-- D to C -->
    <path d="M 700,418 C 820,412 938,396 1044,382"/>
    <!-- B to C -->
    <path d="M 972,205 C 1010,268 1030,324 1044,382"/>
    <!-- A to B (long, faint) -->
    <path d="M 386,304 C 560,260 698,228 832,168" stroke-opacity="0.07"/>
  </g>

  <!-- ═══════════════════════════════════════════ -->
  <!-- CLUSTER A: Alpha Helix — blue, ~(316,317) -->
  <!-- ═══════════════════════════════════════════ -->
  <g>
    <!-- Connections -->
    <g stroke="#60a5fa" stroke-opacity="0.28" stroke-width="1.2" fill="none">
      <line x1="250" y1="252" x2="282" y2="274"/>
      <line x1="282" y1="274" x2="318" y2="258"/>
      <line x1="282" y1="274" x2="266" y2="312"/>
      <line x1="318" y1="258" x2="354" y2="282"/>
      <line x1="266" y1="312" x2="298" y2="338"/>
      <line x1="354" y1="282" x2="386" y2="306"/>
      <line x1="354" y1="282" x2="318" y2="258"/>
      <line x1="298" y1="338" x2="252" y2="350"/>
      <line x1="298" y1="338" x2="330" y2="372"/>
      <line x1="386" y1="306" x2="378" y2="356"/>
      <line x1="378" y1="356" x2="330" y2="372"/>
      <line x1="330" y1="372" x2="266" y2="388"/>
      <line x1="330" y1="372" x2="362" y2="398"/>
      <line x1="266" y1="312" x2="252" y2="350"/>
    </g>
    <!-- Nodes -->
    <g filter="url(#nodeGlow)">
      <circle cx="250" cy="252" r="8"   fill="#60a5fa" opacity="0.92"/>
      <circle cx="282" cy="274" r="5"   fill="#60a5fa" opacity="0.68"/>
      <circle cx="318" cy="258" r="9"   fill="#60a5fa" opacity="0.95"/>
      <circle cx="266" cy="312" r="4"   fill="#93c5fd" opacity="0.56"/>
      <circle cx="354" cy="282" r="6"   fill="#93c5fd" opacity="0.78"/>
      <circle cx="298" cy="338" r="5"   fill="#60a5fa" opacity="0.62"/>
      <circle cx="252" cy="350" r="8"   fill="#60a5fa" opacity="0.90"/>
      <circle cx="386" cy="306" r="4"   fill="#93c5fd" opacity="0.50"/>
      <circle cx="378" cy="356" r="7"   fill="#60a5fa" opacity="0.84"/>
      <circle cx="330" cy="372" r="5"   fill="#93c5fd" opacity="0.70"/>
      <circle cx="266" cy="388" r="3"   fill="#60a5fa" opacity="0.42"/>
      <circle cx="362" cy="398" r="6"   fill="#60a5fa" opacity="0.74"/>
    </g>
    <!-- Bright core glow nodes -->
    <circle cx="318" cy="258" r="3.5" fill="#bfdbfe" opacity="0.72"/>
    <circle cx="252" cy="350" r="3"   fill="#bfdbfe" opacity="0.64"/>
    <circle cx="250" cy="252" r="3"   fill="#bfdbfe" opacity="0.60"/>
  </g>

  <!-- ═══════════════════════════════════════════ -->
  <!-- CLUSTER B: Beta Sheet — teal, ~(893,216) -->
  <!-- ═══════════════════════════════════════════ -->
  <g>
    <!-- Connections -->
    <g stroke="#34d399" stroke-opacity="0.28" stroke-width="1.2" fill="none">
      <line x1="832" y1="168" x2="872" y2="182"/>
      <line x1="872" y1="182" x2="914" y2="165"/>
      <line x1="914" y1="165" x2="948" y2="188"/>
      <line x1="872" y1="182" x2="854" y2="214"/>
      <line x1="914" y1="165" x2="898" y2="230"/>
      <line x1="948" y1="188" x2="934" y2="218"/>
      <line x1="854" y1="214" x2="898" y2="230"/>
      <line x1="898" y1="230" x2="934" y2="218"/>
      <line x1="934" y1="218" x2="972" y2="205"/>
      <line x1="898" y1="230" x2="878" y2="260"/>
      <line x1="934" y1="218" x2="918" y2="265"/>
      <line x1="972" y1="205" x2="954" y2="252"/>
      <line x1="954" y1="252" x2="976" y2="244"/>
      <line x1="878" y1="260" x2="918" y2="265"/>
      <line x1="948" y1="188" x2="972" y2="205"/>
    </g>
    <!-- Nodes -->
    <g filter="url(#nodeGlow)">
      <circle cx="832" cy="168" r="6"   fill="#34d399" opacity="0.70"/>
      <circle cx="872" cy="182" r="9"   fill="#34d399" opacity="0.96"/>
      <circle cx="914" cy="165" r="5"   fill="#6ee7b7" opacity="0.64"/>
      <circle cx="948" cy="188" r="7"   fill="#34d399" opacity="0.80"/>
      <circle cx="854" cy="214" r="4"   fill="#6ee7b7" opacity="0.52"/>
      <circle cx="898" cy="230" r="9"   fill="#34d399" opacity="0.94"/>
      <circle cx="934" cy="218" r="5"   fill="#6ee7b7" opacity="0.70"/>
      <circle cx="972" cy="205" r="6"   fill="#34d399" opacity="0.80"/>
      <circle cx="878" cy="260" r="5"   fill="#6ee7b7" opacity="0.64"/>
      <circle cx="918" cy="265" r="8"   fill="#34d399" opacity="0.88"/>
      <circle cx="954" cy="252" r="4"   fill="#6ee7b7" opacity="0.52"/>
      <circle cx="976" cy="244" r="5"   fill="#34d399" opacity="0.70"/>
    </g>
    <circle cx="872" cy="182" r="3.5" fill="#a7f3d0" opacity="0.72"/>
    <circle cx="898" cy="230" r="3.5" fill="#a7f3d0" opacity="0.68"/>
  </g>

  <!-- ═══════════════════════════════════════════════ -->
  <!-- CLUSTER C: Gamma Node — purple, ~(1094,418) -->
  <!-- ═══════════════════════════════════════════════ -->
  <g>
    <!-- Connections -->
    <g stroke="#a78bfa" stroke-opacity="0.28" stroke-width="1.2" fill="none">
      <line x1="1044" y1="382" x2="1080" y2="366"/>
      <line x1="1044" y1="382" x2="1058" y2="418"/>
      <line x1="1080" y1="366" x2="1058" y2="418"/>
      <line x1="1058" y1="418" x2="1102" y2="400"/>
      <line x1="1102" y1="400" x2="1132" y2="373"/>
      <line x1="1080" y1="366" x2="1132" y2="373"/>
      <line x1="1058" y1="418" x2="1024" y2="434"/>
      <line x1="1058" y1="418" x2="1078" y2="450"/>
      <line x1="1102" y1="400" x2="1114" y2="438"/>
      <line x1="1132" y1="373" x2="1148" y2="416"/>
      <line x1="1024" y1="434" x2="1044" y2="468"/>
      <line x1="1078" y1="450" x2="1114" y2="438"/>
      <line x1="1114" y1="438" x2="1148" y2="416"/>
      <line x1="1148" y1="416" x2="1162" y2="456"/>
      <line x1="1044" y1="468" x2="1078" y2="450"/>
      <line x1="1078" y1="450" x2="1092" y2="478"/>
    </g>
    <!-- Nodes -->
    <g filter="url(#nodeGlow)">
      <circle cx="1044" cy="382" r="7"   fill="#a78bfa" opacity="0.80"/>
      <circle cx="1080" cy="366" r="5"   fill="#c4b5fd" opacity="0.60"/>
      <circle cx="1058" cy="418" r="10"  fill="#a78bfa" opacity="0.97"/>
      <circle cx="1102" cy="400" r="6"   fill="#c4b5fd" opacity="0.78"/>
      <circle cx="1132" cy="373" r="5"   fill="#a78bfa" opacity="0.62"/>
      <circle cx="1024" cy="434" r="5"   fill="#c4b5fd" opacity="0.70"/>
      <circle cx="1078" cy="450" r="8"   fill="#a78bfa" opacity="0.90"/>
      <circle cx="1114" cy="438" r="4"   fill="#c4b5fd" opacity="0.52"/>
      <circle cx="1148" cy="416" r="9"   fill="#a78bfa" opacity="0.96"/>
      <circle cx="1162" cy="456" r="5"   fill="#c4b5fd" opacity="0.68"/>
      <circle cx="1044" cy="468" r="6"   fill="#a78bfa" opacity="0.75"/>
      <circle cx="1092" cy="478" r="4"   fill="#c4b5fd" opacity="0.50"/>
    </g>
    <circle cx="1058" cy="418" r="4"   fill="#ddd6fe" opacity="0.72"/>
    <circle cx="1148" cy="416" r="3.5" fill="#ddd6fe" opacity="0.64"/>
  </g>

  <!-- ══════════════════════════════════════════════ -->
  <!-- CLUSTER D: Delta Bridge — mixed, ~(634,418) -->
  <!-- ══════════════════════════════════════════════ -->
  <g>
    <!-- Connections -->
    <g stroke="#60a5fa" stroke-opacity="0.26" stroke-width="1.2" fill="none">
      <line x1="594" y1="392" x2="632" y2="376"/>
      <line x1="632" y1="376" x2="666" y2="396"/>
      <line x1="594" y1="392" x2="589" y2="428"/>
      <line x1="632" y1="376" x2="628" y2="416"/>
      <line x1="666" y1="396" x2="662" y2="438"/>
      <line x1="589" y1="428" x2="628" y2="416"/>
      <line x1="628" y1="416" x2="662" y2="438"/>
      <line x1="662" y1="438" x2="700" y2="418"/>
      <line x1="666" y1="396" x2="700" y2="418"/>
      <line x1="589" y1="428" x2="614" y2="456"/>
      <line x1="628" y1="416" x2="614" y2="456"/>
      <line x1="662" y1="438" x2="648" y2="464"/>
      <line x1="700" y1="418" x2="688" y2="458"/>
      <line x1="614" y1="456" x2="648" y2="464"/>
      <line x1="648" y1="464" x2="688" y2="458"/>
    </g>
    <!-- Nodes -->
    <g filter="url(#nodeGlow)">
      <circle cx="594" cy="392" r="5"   fill="#60a5fa" opacity="0.65"/>
      <circle cx="632" cy="376" r="8"   fill="#34d399" opacity="0.85"/>
      <circle cx="666" cy="396" r="6"   fill="#60a5fa" opacity="0.75"/>
      <circle cx="589" cy="428" r="6"   fill="#34d399" opacity="0.70"/>
      <circle cx="628" cy="416" r="4"   fill="#93c5fd" opacity="0.52"/>
      <circle cx="662" cy="438" r="9"   fill="#60a5fa" opacity="0.95"/>
      <circle cx="700" cy="418" r="5"   fill="#34d399" opacity="0.70"/>
      <circle cx="614" cy="456" r="5"   fill="#93c5fd" opacity="0.65"/>
      <circle cx="648" cy="464" r="7"   fill="#60a5fa" opacity="0.80"/>
      <circle cx="688" cy="458" r="4"   fill="#93c5fd" opacity="0.52"/>
    </g>
    <circle cx="662" cy="438" r="3.5" fill="#bfdbfe" opacity="0.68"/>
    <circle cx="632" cy="376" r="3"   fill="#a7f3d0" opacity="0.62"/>
  </g>

</svg>
